<?xml version="1.0" standalone="no"?>
<!DOCTYPE svg PUBLIC "-//W3C//DTD SVG 20010904//EN"
 "http://www.w3.org/TR/2001/REC-SVG-20010904/DTD/svg10.dtd">
<svg version="1.0" xmlns="http://www.w3.org/2000/svg"
 width="1577.000000pt" height="1577.000000pt" viewBox="0 0 1577.000000 1577.000000"
 preserveAspectRatio="xMidYMid meet">
<metadata>
Created by potrace 1.11, written by Peter Selinger 2001-2013
</metadata>
<g transform="translate(0.000000,1577.000000) scale(0.100000,-0.100000)"
fill="#000000" stroke="none">
<path d="M10505 13246 c-180 -30 -388 -99 -510 -169 -207 -120 -387 -261 -566
-443 -209 -215 -287 -329 -454 -661 -303 -606 -447 -745 -793 -769 -193 -13
-437 24 -569 86 -94 44 -145 82 -284 215 -220 212 -424 325 -583 325 -80 0
-111 -11 -159 -58 -41 -40 -72 -112 -83 -191 -4 -28 -7 -51 -9 -51 -1 0 -46
30 -101 67 -121 81 -273 155 -379 184 -101 27 -192 23 -256 -12 -50 -28 -111
-104 -128 -159 -28 -94 0 -226 73 -333 l43 -65 -76 -4 c-137 -9 -233 -72 -261
-174 -19 -67 -7 -190 33 -329 50 -173 51 -179 32 -219 -24 -50 -91 -89 -289
-168 -223 -89 -329 -143 -382 -194 l-42 -41 -59 59 c-148 152 -388 350 -559
461 -202 132 -422 222 -759 307 -252 64 -339 75 -605 75 -265 0 -358 -14 -554
-82 -593 -205 -1093 -832 -1240 -1553 -78 -384 -60 -782 53 -1160 15 -52 34
-131 40 -175 25 -161 104 -321 199 -406 59 -52 154 -98 221 -106 28 -3 51 -9
51 -12 0 -36 48 -284 75 -386 107 -409 266 -626 477 -651 99 -12 236 38 353
126 l63 48 73 -127 c264 -458 545 -765 758 -827 41 -12 83 -15 170 -12 100 3
124 8 176 32 86 39 134 90 154 162 5 20 13 16 86 -48 219 -193 453 -331 640
-378 47 -12 53 -17 87 -74 160 -268 497 -543 898 -734 74 -35 136 -66 138 -67
2 -1 -28 -50 -66 -109 -224 -343 -408 -830 -481 -1268 -61 -368 -58 -794 9
-1168 129 -716 506 -1414 1043 -1927 l87 -83 180 0 181 0 -88 74 c-114 95
-309 296 -405 416 -259 326 -452 695 -605 1157 -123 374 -162 591 -170 959 -7
316 15 537 81 809 79 326 229 665 414 941 l87 129 90 -1 c489 -8 948 -6 1110
5 1079 71 1815 260 2664 685 153 77 171 84 166 64 -9 -43 -85 -553 -121 -823
-37 -270 -37 -270 -77 -340 -61 -107 -131 -190 -198 -234 -79 -53 -125 -64
-229 -58 -145 8 -274 65 -583 259 -199 124 -334 191 -435 215 -107 25 -433 25
-581 0 -121 -20 -324 -67 -318 -73 2 -3 96 -9 208 -14 328 -16 536 -37 609
-61 94 -31 184 -79 354 -188 271 -175 376 -228 544 -273 105 -28 318 -30 412
-4 258 70 428 276 574 691 74 210 84 231 122 265 101 89 181 17 204 -184 7
-55 16 -110 20 -122 26 -66 94 -85 129 -36 11 16 41 90 67 166 25 75 55 147
65 160 43 55 121 35 166 -41 28 -48 28 -36 7 -311 -6 -71 -4 -85 11 -102 43
-48 94 -18 203 119 90 113 109 130 140 131 30 0 70 -44 78 -87 10 -53 -3 -160
-31 -256 -129 -447 -607 -938 -1190 -1222 -237 -116 -462 -193 -645 -220 -300
-46 -683 19 -1100 186 -323 129 -778 380 -874 482 -27 29 -51 47 -53 40 -2 -7
-11 -9 -20 -6 -13 5 -14 0 -8 -28 17 -83 103 -195 281 -369 145 -141 248 -214
415 -294 282 -136 601 -205 1029 -224 l155 -7 -105 -71 c-185 -126 -386 -227
-618 -313 l-109 -40 -99 10 c-96 9 -300 3 -337 -10 -13 -5 51 -36 205 -101
634 -266 1278 -597 1278 -655 0 -9 9 -15 21 -15 11 0 33 -8 47 -19 58 -40 153
-81 214 -90 212 -34 396 96 636 450 152 225 255 320 363 335 39 5 49 3 75 -19
37 -31 54 -84 54 -167 0 -57 -5 -71 -45 -141 -105 -177 -111 -279 -19 -279 91
0 154 64 244 247 113 231 202 342 315 394 138 63 206 -49 160 -264 -20 -98
-68 -190 -204 -393 -65 -99 -128 -197 -140 -219 -42 -78 -21 -114 66 -115 68
0 116 22 254 115 179 122 266 145 331 86 32 -28 33 -33 33 -103 0 -59 -5 -83
-27 -129 -81 -165 -446 -509 -836 -788 l-114 -81 1220 0 1219 0 7 167 c11 290
36 734 62 1123 186 2803 622 5128 1271 6770 273 691 620 1314 891 1602 l64 67
-22 143 c-91 605 -240 1104 -465 1557 -176 352 -371 628 -620 876 -425 423
-985 701 -1530 759 l-50 5 -109 -112 c-156 -160 -340 -377 -491 -579 l-20 -27
-79 87 c-172 190 -420 401 -621 527 -191 120 -433 219 -651 266 -125 27 -417
35 -539 15z m533 -241 c269 -53 577 -210 832 -423 382 -320 760 -844 760
-1052 0 -89 -42 -120 -165 -120 -102 0 -127 -37 -84 -122 12 -23 65 -107 119
-187 192 -288 286 -481 360 -738 118 -412 85 -663 -93 -712 -101 -29 -288 9
-448 89 l-61 31 6 -38 c29 -179 33 -426 11 -596 -49 -374 -201 -671 -445 -869
-53 -43 -159 -108 -175 -108 -7 0 -17 32 -25 73 -18 106 -83 336 -130 462 -88
239 -251 529 -410 730 -84 106 -284 304 -390 387 -177 137 -399 267 -577 339
-46 18 -81 34 -79 37 7 6 194 -29 320 -59 403 -99 1034 -362 1496 -624 44 -25
84 -45 90 -45 6 0 55 26 110 58 94 54 101 60 124 112 30 68 51 140 71 245 19
103 45 334 45 405 l0 55 99 -99 c54 -54 101 -94 104 -90 12 20 29 103 37 175
35 354 -162 746 -581 1154 -131 127 -290 263 -362 310 -15 10 -24 21 -20 25 4
4 82 31 173 59 90 29 166 54 168 56 12 11 -184 186 -260 233 -220 136 -511
205 -798 188 -217 -13 -339 -51 -500 -158 -266 -175 -535 -520 -766 -980 -87
-173 -233 -518 -220 -518 3 0 34 57 71 128 207 396 497 738 803 946 166 113
374 201 584 248 85 19 133 23 273 23 213 0 386 -27 316 -50 -11 -3 -120 -55
-241 -114 l-221 -107 110 -43 c466 -178 883 -531 1154 -976 62 -103 132 -239
120 -234 -4 2 -46 29 -93 60 -87 57 -335 199 -349 199 -4 0 3 -39 15 -87 47
-175 68 -328 68 -498 1 -99 -4 -183 -13 -220 -13 -58 -49 -155 -58 -155 -2 0
-66 24 -141 54 -485 192 -963 309 -1411 346 -152 12 -432 12 -452 -1 -10 -6
-8 -9 8 -9 33 0 297 -225 478 -405 318 -318 555 -641 725 -990 376 -773 364
-1570 -36 -2195 -173 -271 -506 -595 -849 -826 -637 -429 -1456 -732 -2385
-883 -398 -65 -1047 -121 -1401 -121 -555 0 -864 113 -1215 444 -99 93 -298
310 -371 403 -155 200 -272 511 -333 883 -77 482 -71 1172 16 1769 8 57 13
105 10 108 -17 17 -192 -317 -244 -467 -37 -107 -75 -262 -99 -405 -26 -156
-25 -643 0 -825 45 -310 146 -703 237 -915 11 -25 17 -45 15 -45 -19 0 -144
55 -178 79 -69 47 -147 138 -222 260 -76 123 -145 200 -205 231 -90 46 -124
15 -185 -168 -52 -159 -113 -217 -220 -209 -72 5 -123 29 -192 91 -111 100
-209 253 -400 619 -196 377 -229 427 -289 427 -46 0 -65 -21 -123 -144 -36
-73 -61 -113 -88 -135 -115 -95 -256 -75 -348 50 -108 146 -173 392 -215 804
-21 210 -36 286 -64 329 -27 41 -53 33 -132 -44 -40 -39 -88 -77 -108 -85 -33
-14 -40 -14 -71 1 -45 21 -86 74 -130 165 -95 203 -143 515 -132 869 20 660
233 1186 592 1461 428 329 947 446 1490 338 428 -86 798 -265 1450 -703 297
-200 331 -219 378 -214 62 6 45 81 -34 152 -27 24 -49 53 -49 63 0 64 264 231
575 364 101 43 165 103 184 172 21 72 8 154 -49 319 -43 123 -49 151 -40 169
17 31 73 22 190 -31 141 -64 210 -65 210 -3 0 29 -12 52 -103 207 -76 130
-116 229 -117 291 0 85 67 152 140 140 101 -18 211 -89 467 -304 168 -139 247
-194 296 -205 42 -10 43 12 9 122 -70 223 -64 343 21 371 88 29 253 -64 497
-279 190 -168 340 -250 519 -284 210 -40 696 -1 844 67 113 52 220 155 324
312 47 71 111 184 223 395 194 363 316 538 514 735 273 272 593 442 931 495
85 13 315 5 413 -15z m2506 -279 c403 -187 820 -501 1103 -831 348 -404 579
-864 698 -1390 39 -172 42 -240 13 -290 -13 -22 -39 -50 -58 -63 -30 -21 -44
-23 -105 -20 -202 11 -483 241 -891 730 -467 560 -862 1200 -963 1560 -32 113
-45 230 -31 272 29 88 94 97 234 32z"/>
<path d="M2995 10229 c-114 -12 -235 -52 -349 -116 -280 -158 -507 -392 -627
-647 -62 -133 -119 -386 -87 -386 7 0 90 24 183 54 94 29 171 53 172 52 1 -1
-11 -44 -28 -96 -118 -376 -176 -796 -151 -1087 25 -287 84 -462 213 -633 67
-89 170 -181 178 -159 2 8 14 72 25 143 l21 129 90 -109 c176 -212 346 -373
448 -425 36 -19 51 -21 141 -15 162 11 137 -10 254 220 253 502 558 981 820
1289 72 84 275 287 347 346 l40 33 -60 -32 c-33 -18 -96 -58 -140 -89 -415
-291 -831 -738 -1188 -1276 -54 -82 -101 -152 -103 -154 -9 -10 -110 68 -174
135 -126 133 -248 342 -341 582 -23 61 -46 112 -49 112 -10 0 -151 -300 -190
-402 -18 -49 -35 -86 -37 -85 -9 10 -33 213 -38 338 -15 305 43 674 150 965
54 148 154 345 240 473 41 63 74 116 72 118 -3 3 -326 -47 -524 -80 -20 -4
-19 0 14 36 143 159 366 303 589 380 218 76 405 103 649 94 362 -13 747 -122
1154 -329 63 -32 116 -56 118 -55 4 5 -174 120 -312 202 -283 168 -535 286
-790 370 -184 61 -314 90 -470 105 -122 11 -144 11 -260 -1z"/>
<path d="M9580 9444 c-101 -21 -186 -69 -261 -143 -210 -210 -213 -533 -7
-747 277 -289 762 -176 888 206 61 186 9 401 -132 542 -94 94 -256 160 -388
157 -19 0 -64 -7 -100 -15z m-5 -253 c71 -33 105 -86 105 -163 0 -95 -91 -176
-186 -165 -92 10 -154 79 -154 172 0 53 16 89 57 126 53 49 114 60 178 30z"/>
<path d="M7545 8729 c-49 -5 -92 -19 -150 -48 -246 -122 -412 -374 -486 -739
-27 -134 -37 -515 -20 -740 60 -749 273 -1156 677 -1292 91 -30 112 -33 254
-38 128 -3 177 -1 279 17 292 50 565 180 726 346 152 157 214 321 215 566 0
202 -40 382 -141 639 -93 238 -289 600 -417 772 -277 371 -610 555 -937 517z"/>
<path d="M5591 8354 c-179 -48 -340 -211 -380 -384 -18 -77 -13 -220 9 -292
50 -161 190 -300 353 -350 57 -17 87 -20 181 -16 108 4 117 6 201 46 335 161
411 596 150 857 -67 67 -153 117 -240 140 -73 19 -202 18 -274 -1z m16 -245
c64 -24 113 -97 113 -168 0 -37 -38 -108 -69 -131 -68 -48 -166 -41 -224 16
-133 128 7 349 180 283z"/>
</g>
</svg>
